<?xml version="1.0" encoding="UTF-8" standalone="no"?>
<svg
   version="1.1"
   id="prefix__Aspose_PDF_for_NET"
   x="0"
   y="0"
   viewBox="0 0 277 277"
   xml:space="preserve"
   sodipodi:docname="aspose_medical-for-net.svg"
   inkscape:version="1.3.2 (091e20e, 2023-11-25, custom)"
   xmlns:inkscape="http://www.inkscape.org/namespaces/inkscape"
   xmlns:sodipodi="http://sodipodi.sourceforge.net/DTD/sodipodi-0.dtd"
   xmlns="http://www.w3.org/2000/svg"
   xmlns:svg="http://www.w3.org/2000/svg"><defs
     id="defs8" /><sodipodi:namedview
     id="namedview8"
     pagecolor="#ffffff"
     bordercolor="#666666"
     borderopacity="1.0"
     inkscape:showpageshadow="2"
     inkscape:pageopacity="0.0"
     inkscape:pagecheckerboard="0"
     inkscape:deskcolor="#d1d1d1"
     inkscape:zoom="1.4512282"
     inkscape:cx="441.3503"
     inkscape:cy="49.268613"
     inkscape:window-width="2560"
     inkscape:window-height="1351"
     inkscape:window-x="-9"
     inkscape:window-y="-9"
     inkscape:window-maximized="1"
     inkscape:current-layer="prefix__Aspose_PDF_for_NET" /><style
     id="style1">.prefix__st2{fill:#a4c547}.prefix__st3,.prefix__st4{fill:#fff}.prefix__st4{display:none}</style><path
     id="prefix__XMLID_36_"
     d="m 180.46,87.48 c -25.78,0 -47.67,9.07 -65.69,27.2 -18.12,18.02 -27.18,39.93 -27.18,65.72 0,25.79 9.06,47.65 27.18,65.56 6.65,6.78 13.85,12.3 21.61,16.56 H 23.59 c -1.8,-0.11 -3.55,-0.62 -5.23,-1.52 -2.81,-1.35 -4.22,-4 -4.22,-7.94 V 23.62 c 0.22,-2.03 0.67,-3.77 1.35,-5.24 1.46,-2.82 4.17,-4.22 8.1,-4.22 h 229.47 l 1.52,0.34 c 1.35,0.23 2.53,0.56 3.55,1.01 2.93,1.35 4.39,4.05 4.39,8.11 V 136.49 C 258.26,128.7 252.75,121.43 245.97,114.7 227.74,96.55 205.9,87.48 180.46,87.48 Z"
     fill-rule="evenodd"
     clip-rule="evenodd"
     fill="#ffffff" /><path
     id="prefix__XMLID_33_"
     d="m 180.46,87.48 c 25.44,0 47.28,9.07 65.51,27.2 6.78,6.74 12.29,14 16.55,21.79 V 23.62 c 0,-4.06 -1.46,-6.76 -4.39,-8.11 -1.01,-0.45 -2.2,-0.79 -3.55,-1.01 l -1.52,-0.34 H 23.59 c -3.94,0 -6.64,1.41 -8.1,4.22 -0.68,1.46 -1.13,3.21 -1.35,5.24 v 229.45 c 0,3.94 1.41,6.59 4.22,7.94 1.69,0.9 3.43,1.41 5.23,1.52 h 112.79 c -7.76,-4.26 -14.96,-9.78 -21.61,-16.56 -18.12,-17.91 -27.18,-39.76 -27.18,-65.56 0,-25.8 9.06,-47.7 27.18,-65.72 18.01,-18.14 39.91,-27.21 65.69,-27.21 z m 78.68,-83.8 c 2.48,0.45 4.39,1.07 5.74,1.86 5.63,2.7 8.44,7.6 8.44,14.7 v 160.18 c 0,25.68 -9.12,47.54 -27.36,65.56 -18.23,18.25 -40.07,27.37 -65.51,27.37 H 20.21 c -2.7,0 -5.52,-0.67 -8.44,-2.03 -5.63,-2.93 -8.44,-7.88 -8.44,-14.87 V 20.24 c 0,-2.82 0.73,-5.63 2.19,-8.45 2.7,-5.63 7.6,-8.45 14.69,-8.45 h 236.23 z"
     fill-rule="evenodd"
     clip-rule="evenodd"
     fill="#a4c547" /><text
     xml:space="preserve"
     style="font-style:normal;font-weight:normal;font-size:82.6667px;line-height:1.25;font-family:sans-serif;letter-spacing:0px;word-spacing:0px;fill:#a4c547;fill-opacity:1;stroke:none"
     x="21.965702"
     y="96.474937"
     id="text8"><tspan
       sodipodi:role="line"
       id="tspan8"
       x="21.965702"
       y="96.474937"
       style="font-weight:bold;font-size:82.6667px;fill:#a4c547;fill-opacity:1">M</tspan></text><g
     id="g6"><g
       id="g9"><path
         d="m 176.88351,206.6396 h 3.60513 c 16.85019,0 30.55862,-15.69359 30.55862,-34.98393 0,-7.52802 -2.06532,-14.70533 -5.97308,-20.75539 -3.74496,-5.79865 -8.845,-10.06278 -14.76498,-12.36539 -0.45559,-0.54202 -0.97781,-1.0094 -1.55211,-1.385 l 3.34309,-10.56583 -14.63498,-6.06603 -18.61411,58.84429 3.6443,1.51152 -2.08316,6.58387 7.33964,3.04346 2.08336,-6.58341 3.65065,1.5141 10.6651,-33.7189 c 0.39428,0.081 0.79943,0.1256 1.2136,0.1256 0.95485,0 1.86459,-0.22489 2.69169,-0.63006 3.35622,1.631 6.22979,4.29606 8.33898,7.74585 2.28635,3.73972 3.49483,8.13178 3.49483,12.70132 0,12.24637 -8.70333,22.20985 -19.40144,22.20985 h -30.92338 v 12.77408 h 17.11817 v 7.25125 h -17.11878 v 13.03089 h 60.04531 v -13.03089 h -32.72645 z m -10.97573,-20.64811 -1.55621,-0.64531 1.03563,-3.27304 1.55622,0.64555 z m 5.7334,-5.06976 -8.85136,-3.67094 16.51967,-52.22332 8.85115,3.66882 -2.35442,7.44069 c -0.14619,-0.0108 -0.2932,-0.0181 -0.44185,-0.0181 -3.78535,0 -6.86498,3.52586 -6.86498,7.85971 0,2.60332 1.11211,4.91367 2.82005,6.34491 z m 9.93394,-36.94289 c 0,-2.39228 1.69994,-4.33854 3.78946,-4.33854 2.08951,0 3.78945,1.94626 3.78945,4.33854 0,2.39228 -1.69994,4.33855 -3.78945,4.33855 -2.08952,0 -3.78946,-1.94627 -3.78946,-4.33855 z m -28.93433,59.1396 v -5.73176 h 27.84765 c 12.39374,0 22.47696,-11.54284 22.47696,-25.73101 0,-5.29584 -1.40081,-10.38627 -4.05067,-14.72058 -2.11474,-3.45873 -4.89439,-6.23669 -8.12698,-8.1461 0.90236,-1.33053 1.4416,-2.9991 1.4416,-4.81038 0,-0.26432 -0.0119,-0.52536 -0.0343,-0.78311 4.10316,2.21059 7.65908,5.54537 10.40594,9.79823 3.51348,5.43973 5.37027,11.89285 5.37027,18.6617 0,17.34854 -12.32896,31.46278 -27.48309,31.46278 h -27.84745 z m 17.11837,3.52116 h 4.04882 v 7.25125 h -4.04882 z m 36.77528,16.76097 h -53.89427 v -5.98855 h 53.89427 z"
         id="path1"
         style="stroke-width:2;fill:#ffffff;fill-opacity:1;stroke-dasharray:none;paint-order:markers fill stroke" /></g><path
       style="fill:#ffffff;fill-opacity:1;stroke:#ffffff;stroke-width:0.0609059;paint-order:markers fill stroke;stroke-opacity:1"
       d="m 167.21713,179.06211 c -2.36163,-0.9839 -4.31676,-1.79802 -4.34474,-1.80916 -0.0484,-0.0193 16.37401,-52.04556 16.45617,-52.13329 0.0304,-0.0324 8.66619,3.49487 8.77395,3.58371 0.0223,0.0184 -0.78318,2.60077 -1.92067,6.1575 l -0.39444,1.23335 h -0.4458 c -0.53211,0 -1.36584,0.13753 -1.88373,0.31073 -2.01789,0.67487 -3.68922,2.4043 -4.47438,4.62992 -0.37244,1.05569 -0.46866,1.6652 -0.46519,2.94666 0.003,1.28811 0.10255,1.91874 0.46106,2.93496 0.42511,1.20501 1.26417,2.51012 2.04026,3.1735 l 0.27414,0.23433 -4.82945,15.26786 c -2.65619,8.39733 -4.85732,15.26583 -4.89138,15.26335 -0.0341,-0.002 -1.99418,-0.80952 -4.3558,-1.79342 z"
       id="path2" /><path
       style="fill:#ffffff;fill-opacity:1;stroke:#ffffff;stroke-width:0.0609059;paint-order:markers fill stroke;stroke-opacity:1"
       d="m 184.52194,148.17931 c -1.96383,-0.5282 -3.23646,-2.76989 -2.84536,-5.012 0.28087,-1.61015 1.31569,-2.90062 2.66875,-3.32805 2.21821,-0.70073 4.42369,0.96864 4.74613,3.59246 0.26367,2.14549 -1.03096,4.26237 -2.90533,4.75059 -0.44281,0.11533 -1.22949,0.11392 -1.66419,-0.003 z"
       id="path3" /><path
       style="fill:#ffffff;fill-opacity:1;stroke:#ffffff;stroke-width:0.0609059;paint-order:markers fill stroke;stroke-opacity:1"
       d="m 152.66062,200.26035 v -2.83034 l 14.69354,-0.0206 c 15.96159,-0.0224 15.00892,-0.003 16.82526,-0.34987 3.8226,-0.73086 7.47203,-2.61202 10.42765,-5.37508 4.86348,-4.54663 7.76196,-10.81102 8.3055,-17.95039 0.0912,-1.19834 0.04,-4.11781 -0.0919,-5.23791 -0.41478,-3.52207 -1.25537,-6.43918 -2.71158,-9.40996 -2.00709,-4.09464 -4.89624,-7.43837 -8.43347,-9.76042 -0.43811,-0.28761 -0.80553,-0.52951 -0.81648,-0.53756 -0.011,-0.008 0.10601,-0.22951 0.25991,-0.49213 0.72324,-1.2341 1.13039,-2.81499 1.13039,-4.38909 0,-0.34423 0.0127,-0.62588 0.0283,-0.62588 0.0637,0 1.26554,0.71761 1.89732,1.13288 3.5946,2.36274 6.73769,5.72347 9.10815,9.73882 4.18864,7.09519 5.63452,15.88687 4.0016,24.33191 -0.95387,4.93322 -2.98186,9.59603 -5.86747,13.49065 -1.33229,1.79815 -3.36316,3.93649 -5.00452,5.26933 -4.23108,3.43577 -9.05765,5.40367 -14.1824,5.78247 -0.55241,0.0408 -5.90913,0.0631 -15.21125,0.0633 l -14.35856,2.5e-4 z"
       id="path4" /><path
       style="fill:#ffffff;fill-opacity:1;stroke:#ffffff;stroke-width:0.0609059;paint-order:markers fill stroke;stroke-opacity:1"
       d="m 169.77517,210.27759 v -3.59345 h 2.0099 2.00989 v 3.59345 3.59345 h -2.00989 -2.0099 z"
       id="path5" /><path
       style="fill:#ffffff;fill-opacity:1;stroke:#ffffff;stroke-width:0.0609059;paint-order:markers fill stroke;stroke-opacity:1"
       d="m 152.66062,220.41842 v -2.95393 h 26.9204 26.92041 v 2.95393 2.95394 h -26.92041 -26.9204 z"
       id="path6" /></g></svg>
